name C:\Users\antoi\Documents\MyRepositories\upper-imu-dc\Results\main_tracking\Case_78\FLX01_orientations_groundFrame.mot
datacolumns 13
datarows 36
range 2.08000000 2.43000000
endheader 
time	radius_imu_[0][0]	radius_imu_[0][1]	radius_imu_[0][2]	radius_imu_[1][0]	radius_imu_[1][1]	radius_imu_[1][2]	radius_imu_[2][0]	radius_imu_[2][1]	radius_imu_[2][2]	radius_imu_x	radius_imu_y	radius_imu_z	
          2.08000000	          0.47038550	         -0.82887360	         -0.30283006	         -0.37325757	         -0.49783526	          0.78284024	         -0.79963508	         -0.25520308	         -0.54355783	         -2.17771399	         -0.30766075	          1.05461701	
          2.09000000	          0.47788979	         -0.82263164	         -0.30805605	         -0.37374576	         -0.50778385	          0.77618920	         -0.79494368	         -0.25579825	         -0.55011980	         -2.18736699	         -0.31314903	          1.04451838	
          2.10000000	          0.48533638	         -0.81632304	         -0.31315378	         -0.37409403	         -0.51760706	          0.76950412	         -0.79025455	         -0.25631939	         -0.55659511	         -2.19700023	         -0.31851203	          1.03440149	
          2.11000000	          0.49271862	         -0.80995107	         -0.31813146	         -0.37430112	         -0.52730624	          0.76278883	         -0.78557434	         -0.25676330	         -0.56297919	         -2.20660792	         -0.32375789	          1.02427335	
          2.12000000	          0.50003298	         -0.80351801	         -0.32299507	         -0.37436863	         -0.53688345	          0.75604516	         -0.78090662	         -0.25712830	         -0.56927137	         -2.21618882	         -0.32889248	          1.01413760	
          2.13000000	          0.50727912	         -0.79702516	         -0.32774807	         -0.37430087	         -0.54634133	          0.74927299	         -0.77625174	         -0.25741415	         -0.57547476	         -2.22574605	         -0.33391900	          1.00399452	
          2.14000000	          0.51445964	         -0.79047294	         -0.33239106	         -0.37410451	         -0.55568281	          0.74247049	         -0.77160683	         -0.25762210	         -0.58159587	         -2.23528671	         -0.33883766	          0.99384128	
          2.15000000	          0.52157998	         -0.78386097	         -0.33692180	         -0.37378822	         -0.56491102	          0.73563436	         -0.76696590	         -0.25775476	         -0.58764428	         -2.24482136	         -0.34364562	          0.98367214	
          2.16000000	          0.52864799	         -0.77718818	         -0.34133538	         -0.37336181	         -0.57402911	          0.72876028	         -0.76232032	         -0.25781606	         -0.59363171	         -2.25436299	         -0.34833724	          0.97347888	
          2.17000000	          0.53567315	         -0.77045288	         -0.34562500	         -0.37283516	         -0.58304015	          0.72184356	         -0.75765970	         -0.25781106	         -0.59957088	         -2.26392556	         -0.35290475	          0.96325158	
          2.18000000	          0.54266591	         -0.76365294	         -0.34978264	         -0.37221725	         -0.59194707	          0.71487970	         -0.75297279	         -0.25774571	         -0.60547430	         -2.27352270	         -0.35733908	          0.95297934	
          2.19000000	          0.54963707	         -0.75678593	         -0.35379959	         -0.37151568	         -0.60075252	          0.70786475	         -0.74824808	         -0.25762662	         -0.61135370	         -2.28316683	         -0.36163033	          0.94265086	
          2.20000000	          0.55659730	         -0.74984925	         -0.35766682	         -0.37073633	         -0.60945877	          0.70079567	         -0.74347429	         -0.25746089	         -0.61721947	         -2.29286862	         -0.36576824	          0.93225504	
          2.21000000	          0.56355653	         -0.74284039	         -0.36137542	         -0.36988321	         -0.61806761	          0.69367055	         -0.73864095	         -0.25725586	         -0.62308023	         -2.30263628	         -0.36974258	          0.92178160	
          2.22000000	          0.57052346	         -0.73575712	         -0.36491704	         -0.36895837	         -0.62658024	          0.68648883	         -0.73373885	         -0.25701879	         -0.62894247	         -2.31247522	         -0.37354369	          0.91122165	
          2.23000000	          0.57750516	         -0.72859769	         -0.36828412	         -0.36796207	         -0.63499721	          0.67925140	         -0.72876039	         -0.25675660	         -0.63481048	         -2.32238787	         -0.37716274	          0.90056819	
          2.24000000	          0.58450678	         -0.72136105	         -0.37147013	         -0.36689305	         -0.64331830	          0.67196061	         -0.72369975	         -0.25647572	         -0.64068626	         -2.33237359	         -0.38059196	          0.88981649	
          2.25000000	          0.59153154	         -0.71404696	         -0.37446947	         -0.36574889	         -0.65154257	          0.66462022	         -0.71855284	         -0.25618203	         -0.64656986	         -2.34242896	         -0.38382455	          0.87896411	
          2.26000000	          0.59858087	         -0.70665605	         -0.37727731	         -0.36452650	         -0.65966824	          0.65723530	         -0.71331716	         -0.25588090	         -0.65245965	         -2.35254812	         -0.38685457	          0.86801091	
          2.27000000	          0.60565465	         -0.69918992	         -0.37988933	         -0.36322249	         -0.66769279	          0.64981210	         -0.70799143	         -0.25557737	         -0.65835274	         -2.36272312	         -0.38967665	          0.85695884	
          2.28000000	          0.61275148	         -0.69165108	         -0.38230148	         -0.36183348	         -0.67561290	          0.64235795	         -0.70257538	         -0.25527631	         -0.66424532	         -2.37294427	         -0.39228569	          0.84581171	
          2.29000000	          0.61986891	         -0.68404298	         -0.38450972	         -0.36035639	         -0.68342451	          0.63488126	         -0.69706944	         -0.25498262	         -0.67013287	         -2.38320035	         -0.39467665	          0.83457505	
          2.30000000	          0.62700365	         -0.67637007	         -0.38650996	         -0.35878856	         -0.69112281	          0.62739145	         -0.69147465	         -0.25470138	         -0.67601037	         -2.39347877	         -0.39684446	          0.82325593	
          2.31000000	          0.63415152	         -0.66863772	         -0.38829815	         -0.35712780	         -0.69870237	          0.61989897	         -0.68579267	         -0.25443781	         -0.68187229	         -2.40376549	         -0.39878411	          0.81186303	
          2.32000000	          0.64130739	         -0.66085231	         -0.38987056	         -0.35537231	         -0.70615718	          0.61241534	         -0.68002599	         -0.25419728	         -0.68771244	         -2.41404502	         -0.40049102	          0.80040665	
          2.33000000	          0.64846506	         -0.65302116	         -0.39122428	         -0.35352064	         -0.71348087	          0.60495306	         -0.67417819	         -0.25398506	         -0.69352387	         -2.42430030	         -0.40196153	          0.78889884	
          2.34000000	          0.65561702	         -0.64515248	         -0.39235774	         -0.35157153	         -0.72066689	          0.59752548	         -0.66825428	         -0.25380607	         -0.69929872	         -2.43451279	         -0.40319348	          0.77735345	
          2.35000000	          0.66275449	         -0.63725523	         -0.39327123	         -0.34952390	         -0.72770875	          0.59014661	         -0.66226093	         -0.25366462	         -0.70502817	         -2.44466263	         -0.40418681	          0.76578601	
          2.36000000	          0.66986728	         -0.62933897	         -0.39396736	         -0.34737679	         -0.73460036	          0.58283075	         -0.65620667	         -0.25356413	         -0.71070250	         -2.45472898	         -0.40494407	          0.75421361	
          2.37000000	          0.67694410	         -0.62141360	         -0.39445130	         -0.34512940	         -0.74133619	          0.57559217	         -0.65010183	         -0.25350698	         -0.71631126	         -2.46469061	         -0.40547066	          0.74265442	
          2.38000000	          0.68397276	         -0.61348909	         -0.39473079	         -0.34278119	         -0.74791159	          0.56844463	         -0.64395832	         -0.25349436	         -0.72184368	         -2.47452648	         -0.40577484	          0.73112723	
          2.39000000	          0.69094071	         -0.60557519	         -0.39481593	         -0.34033197	         -0.75432294	          0.56140097	         -0.63778922	         -0.25352630	         -0.72728903	         -2.48421658	         -0.40586750	          0.71965082	
          2.40000000	          0.69783541	         -0.59768119	         -0.39471881	         -0.33778209	         -0.76056780	          0.55447261	         -0.63160827	         -0.25360167	         -0.73263715	         -2.49374261	         -0.40576179	          0.70824331	
          2.41000000	          0.70464479	         -0.58981565	         -0.39445306	         -0.33513257	         -0.76664501	          0.54766923	         -0.62542935	         -0.25371821	         -0.73787885	         -2.50308868	         -0.40547257	          0.69692164	
          2.42000000	          0.71135772	         -0.58198617	         -0.39403336	         -0.33238521	         -0.77255476	          0.54099836	         -0.61926591	         -0.25387249	         -0.74300638	         -2.51224194	         -0.40501589	          0.68570107	
          2.43000000	          0.71796418	         -0.57419937	         -0.39347493	         -0.32954275	         -0.77829853	          0.53446514	         -0.61313050	         -0.25406001	         -0.74801370	         -2.52119302	         -0.40440838	          0.67459487	
